<mxfile host="app.diagrams.net" modified="2020-09-03T09:29:13.303Z" agent="5.0 (Windows NT 10.0; Win64; x64) AppleWebKit/537.36 (KHTML, like Gecko) Chrome/84.0.4147.135 Safari/537.36" etag="mEgEqMRWzWzPDchupdm-" version="13.6.6" type="github">
  <diagram name="Page-1" id="82e54ff1-d628-8f03-85c4-9753963a91cd">
    <mxGraphModel dx="1267" dy="802" grid="1" gridSize="10" guides="1" tooltips="1" connect="1" arrows="1" fold="1" page="1" pageScale="1" pageWidth="1100" pageHeight="850" background="#ffffff" math="0" shadow="0">
      <root>
        <mxCell id="0" />
        <mxCell id="1" parent="0" />
        <mxCell id="4ec97bd9e5d20128-1" value="" style="line;strokeWidth=2;html=1;fillColor=none;fontSize=28;fontColor=#004D99;strokeColor=#991F3D;" parent="1" vertex="1">
          <mxGeometry x="40" y="400" width="1240" height="10" as="geometry" />
        </mxCell>
        <mxCell id="4ec97bd9e5d20128-5" value="Stage 1" style="shape=offPageConnector;whiteSpace=wrap;html=1;fontSize=15;fontColor=#FFFFFF;size=0.5093750000000015;verticalAlign=top;strokeColor=none;fillColor=#991F3D;" parent="1" vertex="1">
          <mxGeometry x="120" y="340" width="160" height="40" as="geometry" />
        </mxCell>
        <mxCell id="4ec97bd9e5d20128-6" value="&lt;span&gt;Stage 3&lt;/span&gt;" style="shape=offPageConnector;whiteSpace=wrap;html=1;fontSize=15;fontColor=#FFFFFF;size=0.5093750000000015;verticalAlign=top;strokeColor=none;fillColor=#991F3D;" parent="1" vertex="1">
          <mxGeometry x="573" y="340" width="160" height="40" as="geometry" />
        </mxCell>
        <mxCell id="4ec97bd9e5d20128-7" value="&lt;span&gt;Stage 2&lt;/span&gt;" style="shape=offPageConnector;whiteSpace=wrap;html=1;fontSize=15;fontColor=#FFFFFF;size=0.4178571428571445;flipV=1;verticalAlign=bottom;strokeColor=none;spacingBottom=4;fillColor=#991F3D;" parent="1" vertex="1">
          <mxGeometry x="347" y="425" width="160" height="35" as="geometry" />
        </mxCell>
        <mxCell id="4ec97bd9e5d20128-8" value="&lt;span&gt;Stage 4&lt;/span&gt;" style="shape=offPageConnector;whiteSpace=wrap;html=1;fontSize=15;fontColor=#FFFFFF;size=0.4178571428571445;flipV=1;verticalAlign=bottom;strokeColor=none;spacingBottom=4;fillColor=#991F3D;" parent="1" vertex="1">
          <mxGeometry x="800" y="425" width="160" height="35" as="geometry" />
        </mxCell>
        <mxCell id="4ec97bd9e5d20128-9" value="" style="ellipse;whiteSpace=wrap;html=1;fontSize=28;fontColor=#004D99;strokeWidth=3;strokeColor=#5A5A5A;fillColor=#991F3D;" parent="1" vertex="1">
          <mxGeometry x="190" y="395" width="20" height="20" as="geometry" />
        </mxCell>
        <mxCell id="4ec97bd9e5d20128-10" value="" style="ellipse;whiteSpace=wrap;html=1;fontSize=28;fontColor=#004D99;strokeWidth=3;strokeColor=#5A5A5A;fillColor=#991F3D;" parent="1" vertex="1">
          <mxGeometry x="417" y="395" width="20" height="20" as="geometry" />
        </mxCell>
        <mxCell id="4ec97bd9e5d20128-11" value="" style="ellipse;whiteSpace=wrap;html=1;fontSize=28;fontColor=#004D99;strokeWidth=3;strokeColor=#5A5A5A;fillColor=#991F3D;" parent="1" vertex="1">
          <mxGeometry x="643" y="395" width="20" height="20" as="geometry" />
        </mxCell>
        <mxCell id="4ec97bd9e5d20128-13" value="" style="ellipse;whiteSpace=wrap;html=1;fontSize=28;fontColor=#004D99;strokeWidth=3;strokeColor=#5A5A5A;fillColor=#991F3D;" parent="1" vertex="1">
          <mxGeometry x="870" y="395" width="20" height="20" as="geometry" />
        </mxCell>
        <mxCell id="4ec97bd9e5d20128-14" value="&lt;h1&gt;Azure QA Setup&lt;/h1&gt;&lt;p&gt;Setup API Management.&lt;br&gt;M2M access to Azure Function / Create L2S machine users?&lt;br&gt;Setup storage for validation and styling.&lt;/p&gt;" style="text;html=1;spacing=5;spacingTop=-20;whiteSpace=wrap;overflow=hidden;strokeColor=none;strokeWidth=3;fillColor=#E6E6E6;fontSize=13;fontColor=#000000;align=center;rounded=1;" parent="1" vertex="1">
          <mxGeometry x="93" y="430" width="215" height="140" as="geometry" />
        </mxCell>
        <mxCell id="4ec97bd9e5d20128-16" value="&lt;h1&gt;Azure Function&lt;/h1&gt;&lt;p&gt;Develop Azure Function to transform XML. U&lt;span&gt;pload document to L2S for given license. Download documents in XML/PDF/Excel-format.&lt;/span&gt;&lt;/p&gt;" style="text;html=1;spacing=5;spacingTop=-20;whiteSpace=wrap;overflow=hidden;strokeColor=none;strokeWidth=3;fillColor=#E6E6E6;fontSize=13;fontColor=#000000;align=center;rounded=1;" parent="1" vertex="1">
          <mxGeometry x="319" y="230" width="215" height="140" as="geometry" />
        </mxCell>
        <mxCell id="4ec97bd9e5d20128-17" value="&lt;p style=&quot;line-height: 80%&quot;&gt;&lt;/p&gt;&lt;h1&gt;Deployment QA / Testing&lt;/h1&gt;Deploy the solution to QA environment.&lt;br&gt;Perform M2M testing, performance testing, acceptance testing, and 3&lt;sup&gt;rd&lt;/sup&gt;&amp;nbsp;party security testing.&lt;br&gt;&lt;div&gt;&lt;br&gt;&lt;/div&gt;&lt;p&gt;&lt;/p&gt;" style="text;html=1;spacing=5;spacingTop=-20;whiteSpace=wrap;overflow=hidden;strokeColor=none;strokeWidth=3;fillColor=#E6E6E6;fontSize=13;fontColor=#000000;align=center;rounded=1;" parent="1" vertex="1">
          <mxGeometry x="545" y="430" width="215" height="180" as="geometry" />
        </mxCell>
        <mxCell id="4ec97bd9e5d20128-18" value="&lt;h1&gt;Documentation&lt;/h1&gt;Final version of the user documentation and API documentation.&lt;br&gt;User documentation on L2S.&lt;br&gt;API documentation will be available on Azure Developer Portal" style="text;html=1;spacing=5;spacingTop=-20;whiteSpace=wrap;overflow=hidden;strokeColor=none;strokeWidth=3;fillColor=#E6E6E6;fontSize=13;fontColor=#000000;align=center;rounded=1;" parent="1" vertex="1">
          <mxGeometry x="772.5" y="210" width="215" height="160" as="geometry" />
        </mxCell>
        <mxCell id="jtj3cTkR-HFWMlcVxqGF-2" value="&lt;h1&gt;Azure Prod Setup / Deployment / Testing&lt;/h1&gt;Setup API Management in production environment.&lt;br&gt;Deployment.&lt;br&gt;Perform M2M testing.&lt;br&gt;Other testing?&lt;br&gt;&lt;p&gt;.&lt;/p&gt;" style="text;html=1;spacing=5;spacingTop=-20;whiteSpace=wrap;overflow=hidden;strokeColor=none;strokeWidth=3;fillColor=#E6E6E6;fontSize=13;fontColor=#000000;align=center;rounded=1;" vertex="1" parent="1">
          <mxGeometry x="1002.5" y="440" width="215" height="240" as="geometry" />
        </mxCell>
        <mxCell id="jtj3cTkR-HFWMlcVxqGF-3" value="" style="ellipse;whiteSpace=wrap;html=1;fontSize=28;fontColor=#004D99;strokeWidth=3;strokeColor=#5A5A5A;fillColor=#991F3D;" vertex="1" parent="1">
          <mxGeometry x="1100" y="395" width="20" height="20" as="geometry" />
        </mxCell>
        <mxCell id="jtj3cTkR-HFWMlcVxqGF-4" value="&lt;span&gt;Stage 5&lt;/span&gt;" style="shape=offPageConnector;whiteSpace=wrap;html=1;fontSize=15;fontColor=#FFFFFF;size=0.5093750000000015;verticalAlign=top;strokeColor=none;fillColor=#991F3D;" vertex="1" parent="1">
          <mxGeometry x="1030" y="340" width="160" height="40" as="geometry" />
        </mxCell>
      </root>
    </mxGraphModel>
  </diagram>
</mxfile>
